<svg width="108" height="35" viewBox="0 0 108 35" fill="none" xmlns="http://www.w3.org/2000/svg">
<rect x="0.75" y="0.75" width="106.5" height="33.5" rx="6.25" fill="black" stroke="#222222" stroke-width="1.5"/>
<path d="M29.3667 14.6172C29.3203 14.183 29.1248 13.8449 28.7801 13.603C28.4387 13.361 27.9946 13.2401 27.4477 13.2401C27.0632 13.2401 26.7335 13.2981 26.4584 13.4141C26.1833 13.5301 25.9728 13.6875 25.827 13.8864C25.6811 14.0852 25.6066 14.3123 25.6032 14.5675C25.6032 14.7796 25.6513 14.9635 25.7474 15.1193C25.8469 15.2751 25.9811 15.4077 26.1501 15.517C26.3192 15.6231 26.5064 15.7126 26.7119 15.7855C26.9174 15.8584 27.1246 15.9197 27.3334 15.9695L28.2879 16.2081C28.6724 16.2976 29.0419 16.4186 29.3966 16.571C29.7545 16.7235 30.0744 16.9157 30.3561 17.1477C30.6411 17.3797 30.8665 17.6598 31.0322 17.9879C31.1979 18.3161 31.2808 18.7005 31.2808 19.1413C31.2808 19.7379 31.1283 20.2633 30.8234 20.7173C30.5185 21.1681 30.0777 21.5211 29.501 21.7763C28.9276 22.0282 28.2332 22.1541 27.4179 22.1541C26.6257 22.1541 25.938 22.0315 25.3547 21.7862C24.7747 21.541 24.3206 21.183 23.9925 20.7124C23.6676 20.2417 23.492 19.6683 23.4655 18.9922H25.2801C25.3066 19.3468 25.416 19.6418 25.6082 19.8771C25.8005 20.1125 26.0507 20.2881 26.3589 20.4041C26.6705 20.5201 27.0185 20.5781 27.403 20.5781C27.804 20.5781 28.1553 20.5185 28.4569 20.3991C28.7619 20.2765 29.0005 20.1075 29.1729 19.892C29.3452 19.6733 29.433 19.4181 29.4363 19.1264C29.433 18.8613 29.3551 18.6425 29.2027 18.4702C29.0502 18.2945 28.8364 18.1487 28.5613 18.0327C28.2896 17.9134 27.9714 17.8073 27.6068 17.7145L26.4484 17.4162C25.6099 17.2008 24.947 16.8743 24.4598 16.4368C23.9759 15.996 23.7339 15.411 23.7339 14.6818C23.7339 14.0819 23.8963 13.5566 24.2211 13.1058C24.5493 12.6551 24.9951 12.3054 25.5585 12.0568C26.122 11.8049 26.76 11.679 27.4726 11.679C28.1951 11.679 28.8282 11.8049 29.3717 12.0568C29.9186 12.3054 30.3478 12.6518 30.6594 13.0959C30.9709 13.5367 31.1317 14.0438 31.1416 14.6172H29.3667ZM36.1766 22.1491C35.4143 22.1491 34.7597 21.9818 34.2128 21.647C33.6692 21.3123 33.25 20.8499 32.955 20.2599C32.6633 19.6667 32.5175 18.9839 32.5175 18.2116C32.5175 17.4361 32.6666 16.7517 32.9649 16.1584C33.2632 15.5618 33.6842 15.0978 34.2277 14.7663C34.7746 14.4316 35.4209 14.2642 36.1666 14.2642C36.7864 14.2642 37.335 14.3786 37.8122 14.6072C38.2928 14.8326 38.6756 15.1525 38.9607 15.5668C39.2457 15.9777 39.4081 16.4583 39.4479 17.0085H37.7277C37.6581 16.6406 37.4924 16.334 37.2306 16.0888C36.972 15.8402 36.6257 15.7159 36.1915 15.7159C35.8236 15.7159 35.5004 15.8153 35.222 16.0142C34.9436 16.2098 34.7265 16.4915 34.5708 16.8594C34.4183 17.2273 34.3421 17.6681 34.3421 18.1818C34.3421 18.7022 34.4183 19.1496 34.5708 19.5241C34.7232 19.8954 34.937 20.1821 35.2121 20.3842C35.4905 20.5831 35.817 20.6825 36.1915 20.6825C36.4566 20.6825 36.6936 20.6328 36.9024 20.5334C37.1146 20.4306 37.2919 20.2831 37.4344 20.0909C37.5769 19.8987 37.6747 19.665 37.7277 19.3899H39.4479C39.4048 19.9302 39.2457 20.4091 38.9706 20.8267C38.6955 21.241 38.321 21.5658 37.847 21.8011C37.3731 22.0331 36.8163 22.1491 36.1766 22.1491ZM42.7254 17.5256V22H40.9257V11.8182H42.6856V15.6612H42.7751C42.9541 15.2304 43.2309 14.8906 43.6054 14.642C43.9832 14.3902 44.4638 14.2642 45.0471 14.2642C45.5774 14.2642 46.0398 14.3752 46.4342 14.5973C46.8286 14.8194 47.1336 15.1442 47.349 15.5717C47.5677 15.9993 47.6771 16.5213 47.6771 17.1378V22H45.8774V17.4162C45.8774 16.9025 45.7448 16.5031 45.4797 16.218C45.2178 15.9297 44.8499 15.7855 44.376 15.7855C44.0578 15.7855 43.7728 15.8551 43.5209 15.9943C43.2723 16.1302 43.0767 16.3274 42.9342 16.5859C42.795 16.8445 42.7254 17.1577 42.7254 17.5256ZM52.8923 22.1491C52.1267 22.1491 51.4655 21.9901 50.9086 21.6719C50.3551 21.3504 49.9292 20.8963 49.6309 20.3097C49.3327 19.7197 49.1835 19.0253 49.1835 18.2266C49.1835 17.4411 49.3327 16.7517 49.6309 16.1584C49.9326 15.5618 50.3535 15.0978 50.8937 14.7663C51.434 14.4316 52.0687 14.2642 52.7979 14.2642C53.2685 14.2642 53.7126 14.3404 54.1302 14.4929C54.5512 14.642 54.9224 14.8741 55.2439 15.1889C55.5687 15.5038 55.8239 15.9048 56.0095 16.392C56.1951 16.8759 56.2879 17.4527 56.2879 18.1222V18.674H50.0287V17.4609H54.5628C54.5595 17.1162 54.4849 16.8097 54.339 16.5412C54.1932 16.2694 53.9894 16.0556 53.7275 15.8999C53.469 15.7441 53.1674 15.6662 52.8227 15.6662C52.4548 15.6662 52.1317 15.7557 51.8532 15.9347C51.5748 16.1103 51.3577 16.3423 51.202 16.6307C51.0495 16.9157 50.9716 17.2289 50.9683 17.5703V18.6293C50.9683 19.0734 51.0495 19.4545 51.2119 19.7727C51.3743 20.0876 51.6014 20.3295 51.893 20.4986C52.1847 20.6643 52.5261 20.7472 52.9172 20.7472C53.179 20.7472 53.416 20.7107 53.6281 20.6378C53.8402 20.5616 54.0242 20.4505 54.18 20.3047C54.3357 20.1589 54.4534 19.9782 54.5329 19.7628L56.2133 19.9517C56.1073 20.3958 55.9051 20.7836 55.6068 21.1151C55.3118 21.4432 54.934 21.6984 54.4733 21.8807C54.0126 22.0597 53.4856 22.1491 52.8923 22.1491ZM60.6443 22.1342C60.0444 22.1342 59.5074 21.9801 59.0335 21.6719C58.5595 21.3636 58.185 20.9162 57.9099 20.3295C57.6348 19.7429 57.4972 19.0303 57.4972 18.1918C57.4972 17.3433 57.6365 16.6274 57.9149 16.044C58.1966 15.4574 58.5761 15.0149 59.0534 14.7166C59.5306 14.415 60.0626 14.2642 60.6492 14.2642C61.0967 14.2642 61.4646 14.3404 61.7529 14.4929C62.0413 14.642 62.27 14.8227 62.439 15.0348C62.608 15.2436 62.739 15.4408 62.8318 15.6264H62.9063V11.8182H64.711V22H62.9411V20.7969H62.8318C62.739 20.9825 62.6047 21.1797 62.4291 21.3885C62.2534 21.594 62.0214 21.7696 61.733 21.9155C61.4447 22.0613 61.0818 22.1342 60.6443 22.1342ZM61.1464 20.6577C61.5276 20.6577 61.8524 20.5549 62.1208 20.3494C62.3893 20.1406 62.5931 19.8506 62.7323 19.4794C62.8715 19.1082 62.9411 18.6757 62.9411 18.1818C62.9411 17.688 62.8715 17.2588 62.7323 16.8942C62.5964 16.5296 62.3943 16.2462 62.1258 16.044C61.8606 15.8419 61.5342 15.7408 61.1464 15.7408C60.7454 15.7408 60.4106 15.8452 60.1421 16.054C59.8737 16.2628 59.6715 16.5511 59.5356 16.919C59.3997 17.2869 59.3318 17.7079 59.3318 18.1818C59.3318 18.6591 59.3997 19.085 59.5356 19.4595C59.6748 19.8307 59.8786 20.1241 60.1471 20.3395C60.4189 20.5516 60.752 20.6577 61.1464 20.6577ZM71.496 18.7884V14.3636H73.2957V22H71.5507V20.6428H71.4711C71.2988 21.0703 71.0154 21.42 70.621 21.6918C70.2299 21.9635 69.7477 22.0994 69.1743 22.0994C68.6738 22.0994 68.2313 21.9884 67.8469 21.7663C67.4657 21.541 67.1674 21.2145 66.952 20.7869C66.7365 20.3561 66.6288 19.8357 66.6288 19.2259V14.3636H68.4285V18.9474C68.4285 19.4313 68.5611 19.8158 68.8263 20.1009C69.0914 20.3859 69.4394 20.5284 69.8703 20.5284C70.1354 20.5284 70.3923 20.4638 70.6409 20.3345C70.8895 20.2053 71.0933 20.013 71.2524 19.7578C71.4148 19.4993 71.496 19.1761 71.496 18.7884ZM76.9461 11.8182V22H75.1464V11.8182H76.9461ZM82.1775 22.1491C81.4118 22.1491 80.7506 21.9901 80.1938 21.6719C79.6403 21.3504 79.2144 20.8963 78.9161 20.3097C78.6178 19.7197 78.4687 19.0253 78.4687 18.2266C78.4687 17.4411 78.6178 16.7517 78.9161 16.1584C79.2177 15.5618 79.6386 15.0978 80.1789 14.7663C80.7191 14.4316 81.3538 14.2642 82.083 14.2642C82.5537 14.2642 82.9978 14.3404 83.4154 14.4929C83.8363 14.642 84.2075 14.8741 84.529 15.1889C84.8538 15.5038 85.109 15.9048 85.2947 16.392C85.4803 16.8759 85.5731 17.4527 85.5731 18.1222V18.674H79.3138V17.4609H83.8479C83.8446 17.1162 83.77 16.8097 83.6242 16.5412C83.4784 16.2694 83.2745 16.0556 83.0127 15.8999C82.7542 15.7441 82.4526 15.6662 82.1079 15.6662C81.74 15.6662 81.4168 15.7557 81.1384 15.9347C80.86 16.1103 80.6429 16.3423 80.4871 16.6307C80.3347 16.9157 80.2568 17.2289 80.2535 17.5703V18.6293C80.2535 19.0734 80.3347 19.4545 80.4971 19.7727C80.6595 20.0876 80.8865 20.3295 81.1782 20.4986C81.4698 20.6643 81.8112 20.7472 82.2023 20.7472C82.4642 20.7472 82.7011 20.7107 82.9133 20.6378C83.1254 20.5616 83.3093 20.4505 83.4651 20.3047C83.6209 20.1589 83.7385 19.9782 83.8181 19.7628L85.4985 19.9517C85.3924 20.3958 85.1903 20.7836 84.892 21.1151C84.597 21.4432 84.2191 21.6984 83.7584 21.8807C83.2977 22.0597 82.7707 22.1491 82.1775 22.1491Z" fill="#A1A1A1"/>
</svg>
