<svg width="177" height="65" viewBox="0 0 177 65" fill="none" xmlns="http://www.w3.org/2000/svg">
<circle cx="21.5" cy="24.5" r="14.5" fill="white"/>
<rect x="5" y="25" width="34" height="4" fill="black"/>
<rect x="2" y="32" width="40" height="3" fill="black"/>
<path d="M46.512 33V17.544H49.128V24.264H56.568V17.544H59.184V33H56.568V26.28H49.128V33H46.512ZM65.7671 33.24C65.0471 33.24 64.3751 33.112 63.7511 32.856C63.1431 32.6 62.6551 32.216 62.2871 31.704C61.9191 31.176 61.7351 30.528 61.7351 29.76C61.7351 28.672 62.1031 27.8 62.8391 27.144C63.5911 26.472 64.7431 26.136 66.2951 26.136H69.9431V25.632C69.9431 25.088 69.8551 24.656 69.6791 24.336C69.5191 24.016 69.2151 23.784 68.7671 23.64C68.3351 23.496 67.6951 23.424 66.8471 23.424C65.5031 23.424 64.2471 23.624 63.0791 24.024V22.08C63.5911 21.872 64.2151 21.704 64.9511 21.576C65.6871 21.448 66.4791 21.384 67.3271 21.384C68.9911 21.384 70.2551 21.72 71.1191 22.392C71.9991 23.064 72.4391 24.16 72.4391 25.68V33H70.2071L70.0391 31.848C69.5751 32.296 68.9991 32.64 68.3111 32.88C67.6391 33.12 66.7911 33.24 65.7671 33.24ZM66.4631 31.368C67.2471 31.368 67.9271 31.24 68.5031 30.984C69.0951 30.712 69.5751 30.352 69.9431 29.904V27.912H66.3431C65.5751 27.912 65.0151 28.064 64.6631 28.368C64.3271 28.656 64.1591 29.104 64.1591 29.712C64.1591 30.304 64.3591 30.728 64.7591 30.984C65.1591 31.24 65.7271 31.368 66.4631 31.368ZM80.9321 33.24C78.9321 33.24 77.4201 32.736 76.3961 31.728C75.3721 30.704 74.8601 29.232 74.8601 27.312C74.8601 25.312 75.4201 23.824 76.5401 22.848C77.6761 21.872 79.1881 21.384 81.0761 21.384C81.8601 21.384 82.5161 21.44 83.0441 21.552C83.5881 21.664 84.1081 21.84 84.6041 22.08V24.024C83.7721 23.608 82.7641 23.4 81.5801 23.4C80.2681 23.4 79.2601 23.696 78.5561 24.288C77.8521 24.864 77.5001 25.872 77.5001 27.312C77.5001 28.672 77.8121 29.672 78.4361 30.312C79.0601 30.936 80.0921 31.248 81.5321 31.248C82.6681 31.248 83.7001 31.032 84.6281 30.6V32.592C84.1001 32.8 83.5321 32.96 82.9241 33.072C82.3321 33.184 81.6681 33.24 80.9321 33.24ZM86.7073 33V16.824H89.3233V26.184L94.0993 21.624H97.0993L92.4673 26.208L97.3633 33H94.6033L90.8353 27.6L89.3233 29.04V33H86.7073ZM104.828 33V17H108.695V23.4219H115V17H118.859V33H115V26.5703H108.695V33H104.828ZM125.121 33L120.465 17H124.738L127.152 27.4844H127.285L130.043 17H133.527L136.285 27.5078H136.418L138.84 17H143.105L138.457 33H134.73L131.848 23.2969H131.723L128.84 33H125.121Z" fill="white"/>
</svg>
