<svg width="180" height="70" viewBox="0 0 180 70" fill="none" xmlns="http://www.w3.org/2000/svg">
<path fill-rule="evenodd" clip-rule="evenodd" d="M47 32.5C47 32.6673 46.9972 32.834 46.9915 33H18.0085C18.0028 32.834 18 32.6673 18 32.5C18 24.4919 24.4919 18 32.5 18C40.5081 18 47 24.4919 47 32.5ZM20.0878 40C19.521 39.064 19.0572 38.0588 18.7118 37H46.2882C45.9428 38.0588 45.4789 39.064 44.9122 40H20.0878ZM22.5 43C25.1016 45.4785 28.6231 47 32.5 47C36.3769 47 39.8984 45.4785 42.5 43H22.5Z" fill="white"/>
<path d="M57.512 41V25.544H60.128V32.264H67.568V25.544H70.184V41H67.568V34.28H60.128V41H57.512ZM76.7671 41.24C76.0471 41.24 75.3751 41.112 74.7511 40.856C74.1431 40.6 73.6551 40.216 73.2871 39.704C72.9191 39.176 72.7351 38.528 72.7351 37.76C72.7351 36.672 73.1031 35.8 73.8391 35.144C74.5911 34.472 75.7431 34.136 77.2951 34.136H80.9431V33.632C80.9431 33.088 80.8551 32.656 80.6791 32.336C80.5191 32.016 80.2151 31.784 79.7671 31.64C79.3351 31.496 78.6951 31.424 77.8471 31.424C76.5031 31.424 75.2471 31.624 74.0791 32.024V30.08C74.5911 29.872 75.2151 29.704 75.9511 29.576C76.6871 29.448 77.4791 29.384 78.3271 29.384C79.9911 29.384 81.2551 29.72 82.1191 30.392C82.9991 31.064 83.4391 32.16 83.4391 33.68V41H81.2071L81.0391 39.848C80.5751 40.296 79.9991 40.64 79.3111 40.88C78.6391 41.12 77.7911 41.24 76.7671 41.24ZM77.4631 39.368C78.2471 39.368 78.9271 39.24 79.5031 38.984C80.0951 38.712 80.5751 38.352 80.9431 37.904V35.912H77.3431C76.5751 35.912 76.0151 36.064 75.6631 36.368C75.3271 36.656 75.1591 37.104 75.1591 37.712C75.1591 38.304 75.3591 38.728 75.7591 38.984C76.1591 39.24 76.7271 39.368 77.4631 39.368ZM91.9321 41.24C89.9321 41.24 88.4201 40.736 87.3961 39.728C86.3721 38.704 85.8601 37.232 85.8601 35.312C85.8601 33.312 86.4201 31.824 87.5401 30.848C88.6761 29.872 90.1881 29.384 92.0761 29.384C92.8601 29.384 93.5161 29.44 94.0441 29.552C94.5881 29.664 95.1081 29.84 95.6041 30.08V32.024C94.7721 31.608 93.7641 31.4 92.5801 31.4C91.2681 31.4 90.2601 31.696 89.5561 32.288C88.8521 32.864 88.5001 33.872 88.5001 35.312C88.5001 36.672 88.8121 37.672 89.4361 38.312C90.0601 38.936 91.0921 39.248 92.5321 39.248C93.6681 39.248 94.7001 39.032 95.6281 38.6V40.592C95.1001 40.8 94.5321 40.96 93.9241 41.072C93.3321 41.184 92.6681 41.24 91.9321 41.24ZM97.7073 41V24.824H100.323V34.184L105.099 29.624H108.099L103.467 34.208L108.363 41H105.603L101.835 35.6L100.323 37.04V41H97.7073ZM115.828 41V25H119.695V31.4219H126V25H129.859V41H126V34.5703H119.695V41H115.828ZM136.121 41L131.465 25H135.738L138.152 35.4844H138.285L141.043 25H144.527L147.285 35.5078H147.418L149.84 25H154.105L149.457 41H145.73L142.848 31.2969H142.723L139.84 41H136.121Z" fill="white"/>
</svg>
